<?xml version="1.0" standalone="no"?>
<!DOCTYPE svg PUBLIC "-//W3C//DTD SVG 1.1//EN" "http://www.w3.org/Graphics/SVG/1.1/DTD/svg11.dtd" >
<!--
2013-9-30: Created.
-->
<svg>
<metadata>
Created by iconfont
</metadata>
<defs>

<font id="iconfont" horiz-adv-x="1024" >
  <font-face
    font-family="iconfont"
    font-weight="500"
    font-stretch="normal"
    units-per-em="1024"
    ascent="896"
    descent="-128"
  />
    <missing-glyph />
    
    <glyph glyph-name="x" unicode="x" horiz-adv-x="1001"
d="M281 543q-27 -1 -53 -1h-83q-18 0 -36.5 -6t-32.5 -18.5t-23 -32t-9 -45.5v-76h912v41q0 16 -0.5 30t-0.5 18q0 13 -5 29t-17 29.5t-31.5 22.5t-49.5 9h-133v-97h-438v97zM955 310v-52q0 -23 0.5 -52t0.5 -58t-10.5 -47.5t-26 -30t-33 -16t-31.5 -4.5q-14 -1 -29.5 -0.5
t-29.5 0.5h-32l-45 128h-439l-44 -128h-29h-34q-20 0 -45 1q-25 0 -41 9.5t-25.5 23t-13.5 29.5t-4 30v167h911zM163 247q-12 0 -21 -8.5t-9 -21.5t9 -21.5t21 -8.5q13 0 22 8.5t9 21.5t-9 21.5t-22 8.5zM316 123q-8 -26 -14 -48q-5 -19 -10.5 -37t-7.5 -25t-3 -15t1 -14.5
t9.5 -10.5t21.5 -4h37h67h81h80h64h36q23 0 34 12t2 38q-5 13 -9.5 30.5t-9.5 34.5q-5 19 -11 39h-368zM336 498v228q0 11 2.5 23t10 21.5t20.5 15.5t34 6h188q31 0 51.5 -14.5t20.5 -52.5v-227h-327z" />
    

    
    <glyph glyph-name="jiazailoading-A" unicode="&#59644;" d="M512 832c247.2 0 448-200.8 448-448h-64c0 212-172 384-384 384V832z m0-832c-212 0-384 172-384 384H64c0-247.2 200.8-448 448-448v64z"  horiz-adv-x="1024" />

    
    <glyph glyph-name="dingdan" unicode="&#59476;" d="M0 896h455.68v-455.68h-455.68zM0 327.68h455.68v-455.68h-455.68zM568.32 896h455.68v-455.68h-455.68zM568.32 327.68h455.68v-455.68h-455.68z"  horiz-adv-x="1024" />

    
    <glyph glyph-name="youhuiquan" unicode="&#59477;" d="M1141.76 286.72c-66.56 35.84-87.04 61.44-87.04 112.64 0 51.2 20.48 76.8 87.04 112.64 35.84 25.6 40.96 46.08 40.96 76.8v194.56c0 61.44-51.2 112.64-112.64 112.64h-957.44c-61.44 0-112.64-51.2-112.64-112.64v-194.56c0-30.72 5.12-56.32 40.96-76.8 25.6-15.36 87.04-46.08 87.04-112.64 0-76.8-46.08-97.28-81.92-112.64h-5.12c-35.84-25.6-40.96-61.44-40.96-76.8v-194.56c0-61.44 51.2-112.64 112.64-112.64h957.44c61.44 0 112.64 51.2 112.64 112.64v194.56c0 35.84-15.36 51.2-40.96 76.8z m-368.64 66.56c20.48 0 35.84-15.36 35.84-35.84s-15.36-35.84-35.84-35.84h-143.36v-143.36c0-20.48-15.36-35.84-35.84-35.84s-35.84 15.36-35.84 35.84V276.48h-143.36c-20.48 0-35.84 15.36-35.84 35.84s15.36 35.84 35.84 35.84h143.36v87.04h-153.6c-20.48 0-35.84 15.36-35.84 35.84s15.36 35.84 35.84 35.84h112.64l-117.76 117.76c-15.36 15.36-15.36 35.84 0 51.2s35.84 15.36 51.2 0l143.36-143.36 143.36 143.36c15.36 15.36 35.84 15.36 51.2 0s15.36-35.84 0-51.2l-117.76-117.76h107.52c20.48 0 35.84-15.36 35.84-35.84s-15.36-35.84-35.84-35.84h-153.6v-87.04h148.48z"  horiz-adv-x="1182" />

    
    <glyph glyph-name="shouji" unicode="&#59478;" d="M709.307317 896h-394.614634c-42.458537 0-77.42439-34.965854-77.42439-77.42439v-869.15122c0-42.458537 34.965854-77.42439 77.42439-77.42439h392.117073c42.458537 0 77.42439 34.965854 77.42439 77.42439V818.57561c0 42.458537-32.468293 77.42439-74.926829 77.42439z m-252.253658-67.434146h107.395121c9.990244 0 17.482927-7.492683 17.482927-17.482927 0-9.990244-7.492683-17.482927-17.482927-17.482927h-107.395121c-9.990244 0-17.482927 7.492683-17.482927 17.482927 2.497561 9.990244 9.990244 17.482927 17.482927 17.482927z m54.946341-919.102439c-27.473171 0-49.95122 22.478049-49.95122 49.951219s22.478049 49.95122 49.95122 49.95122 49.95122-22.478049 49.95122-49.95122-22.478049-49.95122-49.95122-49.951219z m237.268293 132.370731h-477.034147v684.331708h477.034147v-684.331708z"  horiz-adv-x="1024" />

    
    <glyph glyph-name="yanzhengma" unicode="&#59479;" d="M774.243902 134.243902c0-144.858537-117.385366-262.243902-262.243902-262.243902s-262.243902 117.385366-262.243902 262.243902c0 129.873171 94.907317 239.765854 219.785365 259.746342v474.536585c0 14.985366 12.487805 27.473171 27.473171 27.473171 14.985366 0 27.473171-12.487805 27.473171-27.473171v-54.946341h137.365854c14.985366 0 27.473171-12.487805 27.47317-27.473171 0-14.985366-12.487805-27.473171-27.47317-27.473171h-137.365854v-82.419512h137.365854c14.985366 0 27.473171-12.487805 27.47317-27.473171 0-14.985366-12.487805-27.473171-27.47317-27.47317h-137.365854v-222.282927c139.863415-9.990244 249.756098-122.380488 249.756097-264.741464z m-469.541463 0c0-114.887805 92.409756-207.297561 207.297561-207.297561 114.887805 0 207.297561 92.409756 207.297561 207.297561 0 114.887805-92.409756 207.297561-207.297561 207.297561-114.887805 0-207.297561-92.409756-207.297561-207.297561z"  horiz-adv-x="1024" />

    
    <glyph glyph-name="fanhui" unicode="&#59480;" d="M245.139394 362.278788l484.072727-477.866667c15.515152-12.412121 37.236364-12.412121 49.648485 0 15.515152 12.412121 15.515152 37.236364 0 49.648485l-462.351515 456.145455 453.042424 446.836363c12.412121 12.412121 12.412121 34.133333 0 49.648485-12.412121 12.412121-37.236364 12.412121-49.648485 0l-471.660606-465.454545c-3.10303-3.10303-3.10303-3.10303-3.10303-6.206061 0 0-3.10303 0-3.10303-3.10303-12.412121-12.412121-12.412121-37.236364 3.10303-49.648485z"  horiz-adv-x="1024" />

    
    <glyph glyph-name="jiantou" unicode="&#59481;" d="M801.391304 384l-520.904347 512-57.878261-57.878261 458.573913-454.121739-458.573913-454.121739 57.878261-57.878261z"  horiz-adv-x="1024" />

    
    <glyph glyph-name="quxiao" unicode="&#59482;" d="M983.756328 583.295801a510.25869 510.25869 0 0 1-109.72149 162.739037A510.20749 510.20749 0 0 1 512 895.999488 510.25869 510.25869 0 0 1 149.965162 746.034838 510.20749 510.20749 0 0 1 0.000512 384a510.20749 510.20749 0 0 1 149.96465-362.034838A510.20749 510.20749 0 0 1 512-127.999488a510.20749 510.20749 0 0 1 362.034838 149.96465A510.20749 510.20749 0 0 1 1023.999488 384c0 69.119931-13.542386 136.166264-40.24316 199.295801zM512-58.034758C268.288244-58.034758 69.965242 140.288244 69.965242 384 69.965242 627.711756 268.288244 826.034758 512 826.034758c243.711756 0 442.034758-198.297402 442.034758-442.034758 0-243.711756-198.297402-442.034758-442.034758-442.034758zM740.812571 612.812571c-12.953587 12.953587-33.382367 13.567986-45.619154 1.331199L512 430.924753l-183.193417 183.219017c-12.236788 12.211188-32.665567 11.622388-45.619154-1.331199s-13.567986-33.382367-1.331199-45.619154L465.075247 384l-183.219017-183.193417c-12.211188-12.236788-11.622388-32.665567 1.331199-45.619154s33.382367-13.567986 45.619154-1.331199L512 337.075247l183.193417-183.219017c12.236788-12.211188 32.665567-11.622388 45.619154 1.331199s13.567986 33.382367 1.331199 45.619154L558.924753 384l183.219017 183.193417c12.211188 12.236788 11.622388 32.665567-1.331199 45.619154z"  horiz-adv-x="1024" />

    
    <glyph glyph-name="jujue" unicode="&#59483;" d="M512 896C230.4 896 0 665.6 0 384s230.4-512 512-512 512 230.4 512 512S793.6 896 512 896z m0-960c-246.4 0-448 201.6-448 448S265.6 832 512 832 960 630.4 960 384 758.4-64 512-64zM802.1248 366.9248c0-20.48-12.8768-34.1248-32.2304-34.1248H254.1056c-19.3536 0-32.256 13.6448-32.256 34.1248 0 20.48 12.9024 34.1504 32.256 34.1504h515.7888c19.3536 0 32.256-13.6704 32.256-34.1504z"  horiz-adv-x="1024" />

    
    <glyph glyph-name="chenggong" unicode="&#59484;" d="M512-128C229.2224-128 0 101.2224 0 384S229.2224 896 512 896s512-229.2224 512-512-229.2224-512-512-512z m0 950.8608C269.6192 822.8608 73.1392 626.3808 73.1392 384S269.6192-54.8608 512-54.8608 950.8608 141.6192 950.8608 384 754.3808 822.8608 512 822.8608zM426.1632 182.3488a36.8128 36.8128 0 0 0-26.1888 10.7264l-156.3392 156.8256a37.0432 37.0432 0 0 0 0 52.5056c14.3872 14.336 37.632 14.336 51.968 0l130.56-130.9184 286.5152 287.744a36.8128 36.8128 0 0 0 52.352 0 37.0688 37.0688 0 0 0 0-52.1472L451.968 191.232c-7.168-6.1696-16.384-9.344-25.8048-8.8832z"  horiz-adv-x="1024" />

    
    <glyph glyph-name="shijian" unicode="&#59485;" d="M512-122.904381c-269.312 0-487.619048 228.08381-487.619048 509.44S242.688 896 512 896s487.619048-228.08381 487.619048-509.464381c0-281.35619-218.307048-509.44-487.619048-509.44z m0 939.641905c-227.401143 0-411.745524-192.609524-411.745524-430.177524 0-237.592381 184.32-430.177524 411.745524-430.177524 227.401143 0 411.745524 192.585143 411.745524 430.177524 0 237.568-184.344381 430.153143-411.745524 430.153143zM461.653333 333.531429V688.274286h76.604953v-274.724572h221.915428v-80.018285H461.653333z"  horiz-adv-x="1024" />

    
    <glyph glyph-name="zuobiao" unicode="&#59486;" d="M512 68.992l-21.664 22.72C459.936 123.552 192.224 408.8 192.224 576 192.224 752.32 335.68 895.776 512 895.776c176.32 0 319.776-143.424 319.776-319.776 0-167.264-267.584-452.416-298.112-484.416l-21.664-22.592z m0 767.104c-143.328 0-259.968-116.672-259.968-259.968 0-111.456 171.232-322.496 259.968-420 88.736 97.376 259.968 308.544 259.968 420 0 143.296-116.64 259.968-259.968 259.968zM512 420.544a150.912 150.912 0 0 0-150.72 150.72A150.912 150.912 0 0 0 512 721.92a150.912 150.912 0 0 0 150.72-150.688 150.912 150.912 0 0 0-150.72-150.72z m0 241.6a90.944 90.944 0 0 1-90.88-90.88A90.944 90.944 0 0 1 512 480.32a90.944 90.944 0 0 1 90.88 90.88A90.944 90.944 0 0 1 512 662.112z m0-782.656c-151.712 0-305.248 45.152-305.248 131.392 0 73.536 111.104 113.376 215.04 125.984a29.824 29.824 0 0 0 33.248-26.112 29.792 29.792 0 0 0-26.112-33.248c-113.344-13.856-162.496-50.848-162.496-66.624 0-25.184 93.184-71.584 245.44-71.584 152.32 0 245.44 46.304 245.44 71.584 0 18.624-51.616 50.176-166.432 62.08a29.856 29.856 0 0 0-26.688 32.8 29.728 29.728 0 0 0 32.8 26.656c142.176-14.848 220.256-57.984 220.256-121.632 0-86.24-153.536-131.296-305.248-131.296z"  horiz-adv-x="1024" />

    
    <glyph glyph-name="ic_company_name" unicode="&#59493;" d="M586.926829 458.052683A99.452878 99.452878 0 0 0 636.878049 471.414634h49.951219a99.902439 99.902439 0 0 0 99.902439-99.902439v-499.512195H237.268293V796.097561a99.902439 99.902439 0 0 0 99.902439 99.902439h149.853658a99.902439 99.902439 0 0 0 99.902439-99.902439v-338.044878zM536.97561 371.512195V796.097561a49.95122 49.95122 0 0 1-49.95122 49.951219H337.170732a49.95122 49.95122 0 0 1-49.95122-49.951219v-874.146341h249.756098V371.512195z m49.951219-449.560975h149.853659V371.512195a49.95122 49.95122 0 0 1-49.95122 49.95122h-49.951219a49.95122 49.95122 0 0 1-49.95122-49.95122v-449.560975zM337.170732 721.170732h49.951219v-99.902439H337.170732V721.170732z m0-199.804878h49.951219v-99.902439H337.170732v99.902439z m0-199.804878h49.951219v-99.902439H337.170732v99.902439z m0-199.804878h49.951219v-99.902439H337.170732v99.902439zM437.073171 721.170732h49.951219v-99.902439H437.073171V721.170732z m0-199.804878h49.951219v-99.902439H437.073171v99.902439z m0-199.804878h49.951219v-99.902439H437.073171v99.902439z m0-199.804878h49.951219v-99.902439H437.073171v99.902439z m199.804878 199.804878h49.951219v-99.902439h-49.951219v99.902439z m0-199.804878h49.951219v-99.902439h-49.951219v99.902439z"  horiz-adv-x="1024" />

    
    <glyph glyph-name="ic_user_name" unicode="&#59495;" d="M512 546.341463a149.853659 149.853659 0 1 1 0 299.707317 149.853659 149.853659 0 0 1 0-299.707317z m0-49.951219a199.804878 199.804878 0 1 0 0 399.609756 199.804878 199.804878 0 0 0 0-399.609756z m274.731707-624.390244H237.268293c0 151.726829 0.499512 574.439024 274.731707 574.439024s274.731707-422.712195 274.731707-574.439024zM393.940293-78.04878h342.515512c-1.598439 115.362341-9.540683 198.006634-32.418342 280.875707C668.846829 330.35239 608.056195 396.487805 512 396.487805s-156.846829-66.135415-192.062439-193.660878C297.109854 119.957854 289.16761 37.313561 287.569171-78.04878h106.396097z"  horiz-adv-x="1024" />

    
    <glyph glyph-name="img_coupon_used" unicode="&#59496;" d="M178.495862 111.974715l-70.204023-18.818091a40.14526 40.14526 0 0 0-49.167907 28.392735L1.977154 334.821053a40.14526 40.14526 0 0 0 28.392735 49.167907l70.204024 18.808054C108.522674 621.528463 257.290971 818.842416 479.735857 878.448091c222.444886 59.615711 449.938038-36.893494 566.188674-222.344523l70.204023 18.818091a40.14526 40.14526 0 0 0 49.167907-28.392735l57.146778-213.271694a40.14526 40.14526 0 0 0-28.392735-49.167907l-70.204024-18.808054c-7.948761-218.731449-156.717059-416.045402-379.17198-475.651077-222.444886-59.615711-449.938038 36.893494-566.188674 222.344523z m20.333574 5.439682C311.487072-57.347956 527.870023-147.684827 739.495761-90.979647c211.625738 56.70518 353.850358 243.139767 364.037218 450.811197l-189.284901-50.723536c-26.455726-106.214322-108.281802-195.256508-221.501472-225.596289-113.229706-30.33978-228.607183 5.861208-304.632269 84.626208l-189.284901-50.723536z m-77.931986 290.832336l189.284901 50.723536c26.455726 106.214322 108.281802 195.256508 221.501472 225.596289 113.229706 30.33978 228.607183-5.861208 304.632269-84.626208l189.284901 50.723536C912.943357 825.426239 696.560406 915.76311 484.934668 859.05793 273.30893 802.352751 131.074274 615.918163 120.89745 408.246733z m289.627979-234.107083c71.05711-68.146579 174.973116-98.576686 277.022366-71.237764 102.039215 27.348958 176.819798 105.652288 204.289192 200.204412l-481.311558-128.966648z m-77.931986 290.832336l481.311558 128.966647c-71.05711 68.146579-174.973116 98.576686-277.022367 71.237764-102.039215-27.348958-176.819798-105.652288-204.289191-200.204411z m-297.024743-100.36315a20.07263 20.07263 0 0 1-14.201385-24.588972l57.146777-213.271694a20.07263 20.07263 0 0 1 24.588972-14.201385l1085.758665 290.932699a20.07263 20.07263 0 0 1 14.201386 24.588972l-57.146778 213.271693a20.07263 20.07263 0 0 1-24.588972 14.19135L35.5687 364.598799zM517.070949 739.073785l-27.750411-33.180058 1.575701 43.226409-40.135224 16.138394 41.600526 11.862925 2.950677 43.156154 24.137337-35.899899 41.951797 10.528095-26.686562-34.043181 22.983162-36.652622-40.627003 14.853746z m142.907089 9.404027l-38.509341-19.701287 18.336348 39.181774-30.630834 30.540507 42.925319-5.33932 19.570815 38.569559 8.189633-42.473685 42.734629-6.704259-37.867017-20.905644 6.834731-42.714557-31.584283 29.546912z m136.012141-46.126904l-43.085901-3.833872 31.67461 29.446548-16.961372 39.793989 37.806799-21.036116 32.597951 28.43288-8.320105-42.453612 37.114292-22.210366-42.945391-5.208847-9.664972-42.162559-18.215911 39.231955z m134.536802-502.106803l-3.833872 43.0859 29.446548-31.67461 39.793989 16.961373-21.036116-37.806799 28.43288-32.597951-42.453612 8.320105-22.210366-37.114293-5.208847 42.945392-42.162559 9.664971 39.231955 18.215912z m-94.391542-107.68966l13.298117 41.148892 14.73331-40.667149 43.256518 0.070255-34.123471-26.586199 13.428589-41.118782-35.829644 24.247737-34.956485-25.482204 11.993396 41.570417-35.036775 25.361768 43.236445 1.445229z m-128.796031-63.570019l27.750411 33.180057-1.575701-43.226408 40.135223-16.138395-41.600525-11.862924-2.950677-43.156155-24.137337 35.899899-41.951797-10.528094 26.686561 34.04318-22.983161 36.652623 40.627003-14.853747z m-142.907089-9.404027l38.509341 19.701286-18.336348-39.181773 30.630833-30.540507-42.925319 5.33932-19.570814-38.569559-8.189633 42.473685L501.81575-14.482854l37.867016 20.905644-6.83473 42.714557 31.584283-29.546912z m-136.012141 46.126904l43.0859 3.833872-31.67461-29.446548 16.961373-39.793989-37.806799 21.036116-32.597951-28.43288 8.320105 42.453612-37.114293 22.210365 42.945392 5.208848 9.664971 42.162559 18.215912-39.231955zM293.893412 567.824142l3.833872-43.0859-29.446548 31.67461-39.793989-16.961373 21.036116 37.806799-28.43288 32.597951 42.453612-8.320105 22.210366 37.114293 5.208847-42.945392 42.162559-9.664971-39.231955-18.215912z m94.391543 107.68966l-13.298118-41.148892-14.73331 40.667149-43.256518-0.070255 34.123471 26.586199-13.428589 41.118782 35.829644-24.247737 34.956485 25.482204-11.993396-41.570417 35.036776-25.361768-43.236445-1.445229z m31.112576-345.881524L273.288857 290.480613l18.386529-68.638358c2.74995-10.237041 9.534499-14.151204 20.233211-11.280818l116.802634 31.29323c5.580191 1.495411 9.855661 4.134962 12.605612 7.868471 3.522747 5.429646 2.55926 21.136479-2.900495 47.100426l17.663914-0.752723c5.399537-29.476657 6.051898-47.752787 2.09759-55.300096-3.8138-6.252624-10.809111-10.869329-20.45401-13.950478L311.627581 193.017958c-18.838163-5.048266-30.771342 2.228062-35.879827 21.307097l-32.728423 122.141954 16.760646 4.496269 9.213337-34.434597 129.137266 34.595178-16.278903 60.719705-155.181503-41.580453-4.365797 16.28894 172.172984 46.13694 24.930206-93.066749z m134.857965 123.667473l60.960577 16.329085-6.363024 23.735885 16.991481 4.546451 6.352988-23.735885 63.981508 17.152062 4.305579-16.058104-63.981508-17.142026 5.921426-22.099966 54.447009 14.582766 17.643841-65.838226-55.380386-14.84371c3.753582-21.437569 4.094817-38.549486 0.933378-51.867676 26.696598-6.56375 55.611221-6.543677 86.533107 0l0.1104-17.182171c-33.129876-6.623968-63.931327-6.162297-92.46457 1.655992-9.133047-16.158467-26.666489-29.837964-52.590291-41.01842l-11.330999 13.418553c23.053416 8.922284 38.750212 20.112775 46.70901 33.220203a182.45017 182.45017 0 0 0-46.237304 25.512313l10.437768 12.264377a172.393783 172.393783 0 0 1 42.042124-22.892835c2.137735 11.541762 1.846682 25.68293-1.124068 42.343213l-52.118583-13.97055-17.643842 65.838226 53.051961 14.221458-5.921426 22.099966-60.960577-16.329085-4.305579 16.058104z m140.377937-57.648593l-9.594717 35.829645-38.61974-10.347441 8.099306-30.249454c0.501816-1.856718 0.76276-3.783691 1.264576-5.640409l38.850575 10.407659z m-55.83202-14.954109c-0.501816 1.856718-0.772796 3.773654-1.264576 5.640409l-8.109342 30.239417-37.224692-9.966061 9.604753-35.829644 36.993857 9.905842z m-110.971535 0.933377a307.291893 307.291893 0 0 0-16.158467-36.502078l-10.317332 16.188576c16.590029 34.866158 25.311586 72.110923 26.164673 111.744332l17.754242-2.97075a317.830023 317.830023 0 0 0-7.868471-57.217031l41.951796-156.586587-16.740573-4.486233-34.785868 129.829771z m297.345905 22.561636c5.41961-30.460216 3.422383-57.427794-6.222516-80.962953l-15.857377 7.968834c9.333773 24.689335 9.976097 53.041925 1.896863 85.047733l-29.928291 111.674077 173.337196 46.448066L995.100632 400.097246c4.365797-16.278903-1.60581-26.606271-17.884714-30.972068l-26.756815-7.165929-8.85203 15.335489c9.434136 2.027336 18.16573 3.863981 26.074346 5.981644 8.380323 2.248135 11.491581 8.320105 8.872103 18.095476l-10.839221 40.476458-63.289002-16.961372 18.266093-68.166652-17.222316-4.616705-18.266093 68.176688-60.017164-16.088213z m136.413593 53.011816l-10.909474 40.71733-63.278967-16.961372 10.909475-40.707294 63.278966 16.961372z m-150.50458 3.311984l10.909475-40.71733 59.093822 15.837305-10.909474 40.71733-59.093823-15.837305z m135.419998 52.991743l-10.718784 40.024824-63.289002-16.961372 10.72882-40.014788 63.278966 16.961372z m-91.230103 18.446747l-59.093822-15.827269 10.72882-40.024824 59.093823 15.837305-10.718784 40.014788z"  horiz-adv-x="1224" />

    
    <glyph glyph-name="img_coupon_disabled" unicode="&#59497;" d="M178.495862 111.974715l-70.204023-18.818091a40.14526 40.14526 0 0 0-49.167907 28.392735L1.977154 334.821053a40.14526 40.14526 0 0 0 28.392735 49.167907l70.204024 18.808054C108.522674 621.528463 257.290971 818.842416 479.735857 878.448091c222.444886 59.615711 449.938038-36.893494 566.188674-222.344523l70.204023 18.818091a40.14526 40.14526 0 0 0 49.167907-28.392735l57.146778-213.271694a40.14526 40.14526 0 0 0-28.392735-49.167907l-70.204024-18.808054c-7.948761-218.731449-156.717059-416.045402-379.17198-475.651077-222.444886-59.615711-449.938038 36.893494-566.188674 222.344523z m20.333574 5.439682C311.487072-57.347956 527.870023-147.684827 739.495761-90.979647c211.625738 56.70518 353.850358 243.139767 364.037218 450.811197l-189.284901-50.723536c-26.455726-106.214322-108.281802-195.256508-221.501472-225.596289-113.229706-30.33978-228.607183 5.861208-304.632269 84.626208l-189.284901-50.723536z m-77.931986 290.832336l189.284901 50.723536c26.455726 106.214322 108.281802 195.256508 221.501472 225.596289 113.229706 30.33978 228.607183-5.861208 304.632269-84.626208l189.284901 50.723536C912.943357 825.426239 696.560406 915.76311 484.934668 859.05793 273.30893 802.352751 131.074274 615.918163 120.89745 408.246733z m289.627979-234.107083c71.05711-68.146579 174.973116-98.576686 277.022366-71.237764 102.039215 27.348958 176.819798 105.652288 204.289192 200.204412l-481.311558-128.966648z m-77.931986 290.832336l481.311558 128.966647c-71.05711 68.146579-174.973116 98.576686-277.022367 71.237764-102.039215-27.348958-176.819798-105.652288-204.289191-200.204411z m-297.024743-100.36315a20.07263 20.07263 0 0 1-14.201385-24.588972l57.146777-213.271694a20.07263 20.07263 0 0 1 24.588972-14.201385l1085.758665 290.932699a20.07263 20.07263 0 0 1 14.201386 24.588972l-57.146778 213.271693a20.07263 20.07263 0 0 1-24.588972 14.19135L35.5687 364.598799zM517.070949 739.073785l-27.750411-33.180058 1.575701 43.226409-40.135224 16.138394 41.600526 11.862925 2.950677 43.156154 24.137337-35.899899 41.951797 10.528095-26.686562-34.043181 22.983162-36.652622-40.627003 14.853746z m142.907089 9.404027l-38.509341-19.701287 18.336348 39.181774-30.630834 30.540507 42.925319-5.33932 19.570815 38.569559 8.189633-42.473685 42.734629-6.704259-37.867017-20.905644 6.834731-42.714557-31.584283 29.546912z m136.012141-46.126904l-43.085901-3.833872 31.67461 29.446548-16.961372 39.793989 37.806799-21.036116 32.597951 28.43288-8.320105-42.453612 37.114292-22.210366-42.945391-5.208847-9.664972-42.162559-18.215911 39.231955z m134.536802-502.106803l-3.833872 43.0859 29.446548-31.67461 39.793989 16.961373-21.036116-37.806799 28.43288-32.597951-42.453612 8.320105-22.210366-37.114293-5.208847 42.945392-42.162559 9.664971 39.231955 18.215912z m-94.391542-107.68966l13.298117 41.148892 14.73331-40.667149 43.256518 0.070255-34.123471-26.586199 13.428589-41.118782-35.829644 24.247737-34.956485-25.482204 11.993396 41.570417-35.036775 25.361768 43.236445 1.445229z m-128.796031-63.570019l27.750411 33.180057-1.575701-43.226408 40.135223-16.138395-41.600525-11.862924-2.950677-43.156155-24.137337 35.899899-41.951797-10.528094 26.686561 34.04318-22.983161 36.652623 40.627003-14.853747z m-142.907089-9.404027l38.509341 19.701286-18.336348-39.181773 30.630833-30.540507-42.925319 5.33932-19.570814-38.569559-8.189633 42.473685L501.81575-14.482854l37.867016 20.905644-6.83473 42.714557 31.584283-29.546912z m-136.012141 46.126904l43.0859 3.833872-31.67461-29.446548 16.961373-39.793989-37.806799 21.036116-32.597951-28.43288 8.320105 42.453612-37.114293 22.210365 42.945392 5.208848 9.664971 42.162559 18.215912-39.231955zM293.893412 567.824142l3.833872-43.0859-29.446548 31.67461-39.793989-16.961373 21.036116 37.806799-28.43288 32.597951 42.453612-8.320105 22.210366 37.114293 5.208847-42.945392 42.162559-9.664971-39.231955-18.215912z m94.391543 107.68966l-13.298118-41.148892-14.73331 40.667149-43.256518-0.070255 34.123471 26.586199-13.428589 41.118782 35.829644-24.247737 34.956485 25.482204-11.993396-41.570417 35.036776-25.361768-43.236445-1.445229z m31.805082-341.033984L273.971327 295.318117l18.396565-68.628322c2.739914-10.237041 9.524463-14.151204 20.223175-11.290854l116.802634 31.29323c5.580191 1.505447 9.865698 4.144998 12.605611 7.868471 3.532783 5.439683 2.55926 21.136479-2.900495 47.100426l17.663915-0.752723c5.399537-29.476657 6.061934-47.752787 2.09759-55.300096-3.8138-6.252624-10.799075-10.869329-20.45401-13.950478L312.31005 197.865498c-18.8482-5.048266-30.771342 2.228062-35.889862 21.307097l-32.718387 122.141954 16.740573 4.496269 9.23341-34.434597 129.127229 34.595178-16.278903 60.729742-155.181503-41.580453-4.365797 16.288939 172.172984 46.126904 24.940243-93.066749zM528.010532 471.114211l17.21228-1.876791a308.977993 308.977993 0 0 0-4.295543-33.320566l47.000063 12.595575-10.909474 40.71733 17.222317 4.616705 10.909474-40.71733 77.942022 20.875535 4.365797-16.278903-77.942022-20.875535 4.044635-15.134763c2.529151-11.290854 4.405942-22.009639 5.399537-32.216571l96.08768 25.743148 4.295543-16.058104-86.543144-23.183888c20.373719-30.45018 57.367577-48.465365 110.981571-54.045556l-5.379465-17.162099c-56.574708 8.289996-96.137861 29.356221-118.799861 63.680419-0.301089-16.539847-3.030967-31.48392-8.189633-44.832219-10.37755-25.472167-32.24668-49.037435-65.82819-70.756021l-12.876592 11.762561c33.059622 21.818949 54.477118 44.270185 63.7306 67.444037 3.552856 10.929547 5.570155 22.943016 5.881281 35.739318l-86.55318-23.183888-4.30558 16.058104 90.045819 24.117265c-0.76276 10.26715-2.629515 20.985935-5.158666 32.286826l-4.054672 15.11469-55.601185-14.893892c-4.707032-15.967777-10.658567-30.038691-18.16573-42.02205l-17.503333 8.530867c15.957741 24.217628 24.869989 53.292833 26.997687 87.275796z m269.254259 22.270582l16.359193-3.352129c-4.27547-24.087156-10.979729-45.574906-20.002376-64.95503l-16.108285 6.152261c9.092901 18.155694 15.757015 38.890721 19.751468 62.154898z m72.783356-26.877251c-14.311785 10.618421-27.840738 19.219543-40.928093 26.184746l7.557346 12.74612c11.300891-4.947903 24.990424-13.247936 41.319508-24.83988l-7.948761-14.090986z m-58.381244-30.610761a458.117634 458.117634 0 0 0 33.752127-16.138394c2.489006 12.133905 4.08478 24.789698 4.566523 37.877052l16.048068-2.187916a228.416493 228.416493 0 0 0-5.098448-44.260149 493.636153 493.636153 0 0 0 35.829644-22.059821l-8.310068-16.439484a632.78966 632.78966 0 0 1-32.015845 20.845427c-8.571013-25.733112-22.039748-48.053876-40.948165-66.831822l-14.221459 12.143941c18.456783 17.663914 31.714755 38.92083 39.76388 63.780782a392.851478 392.851478 0 0 1-36.652622 18.597292l7.286365 14.673092z m-5.580192 116.702271c5.6103-6.975239 11.401254-14.65302 17.51337-23.484977l43.738261 11.722416 4.305579-16.058104-107.729805-28.854406-4.295543 16.058104 47.692569 12.776229a207.952447 207.952447 0 0 1-17.924859 20.37372l16.700428 7.467018z m132.278632-125.152848c-13.097391 14.452294-25.291514 31.132649-36.602441 50.051103a218.008834 218.008834 0 0 0-7.376691-26.415581l-14.131132 9.935952c9.4241 29.948364 11.361109 67.373783 5.289138 112.376619l17.503334 1.706173c1.625883-13.538989 2.47897-26.024165 2.910531-37.877053l65.386592 17.51337 4.355761-16.278903-19.771541-5.299174c8.520831-37.375237 8.85203-71.197619 0.833014-101.768234 18.998744-17.864641 39.482863-30.0688 61.151268-36.482005l-5.851172-17.282535c-21.78884 6.884912-42.032087 19.169362-60.67956 36.612477-9.293628-23.936611-23.88643-45.805742-43.597753-65.296265l-13.58917 12.565466c21.176625 19.631032 35.990226 41.56038 44.169822 65.93859z m-32.457443 92.303989c-0.371344-6.082007-0.501816-12.103796-0.993595-17.724132 11.943215-22.230438 24.709408-41.008383 38.288542-56.313764 5.058303 25.79333 4.355761 53.533704-2.629515 83.331524l-34.665432-9.293628z"  horiz-adv-x="1224" />

    
    <glyph glyph-name="ic_gou_shi" unicode="&#59498;" d="M512-128C229.239467-128 0 101.239467 0 384 0 666.760533 229.239467 896 512 896c282.760533 0 512-229.239467 512-512 0-282.760533-229.239467-512-512-512z m199.8848 682.666667l-251.733333-298.939734-178.858667 141.585067L238.933333 343.790933l230.741334-182.6816 294.434133 349.5936L711.8848 554.666667z"  horiz-adv-x="1024" />

    
    <glyph glyph-name="ic_gou_kong" unicode="&#59499;" d="M512-93.866667c263.918933 0 477.866667 213.947733 477.866667 477.866667S775.918933 861.866667 512 861.866667 34.133333 647.918933 34.133333 384s213.947733-477.866667 477.866667-477.866667z m0-34.133333C229.239467-128 0 101.239467 0 384 0 666.760533 229.239467 896 512 896c282.760533 0 512-229.239467 512-512 0-282.760533-229.239467-512-512-512z"  horiz-adv-x="1024" />

    
    <glyph glyph-name="zuobiao1" unicode="&#59544;" d="M495.339286 268.387043C395.185576 268.387043 313.662042 357.342828 313.662042 466.5804s81.523534 198.193357 181.677244 198.193357S677.016529 575.817972 677.016529 466.5804s-81.523534-198.193357-181.677243-198.193357z m0 330.322261c-66.725097 0-121.129173-59.325878-121.129174-132.128904 0-72.803026 54.404076-132.128904 121.129174-132.128904 66.725097 0 121.129173 59.325878 121.129173 132.128904 0 72.803026-54.404076 132.128904-121.129173 132.128904zM511.855399 831.982885c94.703392 0 184.848337-35.674804 253.753561-100.219774 70.358642-65.965356 109.898216-157.398557 111.516795-257.651363a405.635736 405.635736 0 0 0-118.387499-291.806686l-29.464745-29.464745-218.673337-216.49321-150.626951 150.75908-95.132811 95.198875a406.13122 406.13122 0 0 0-118.387498 291.806686c1.618579 100.15371 41.25725 191.586911 111.516795 257.651363A370.291255 370.291255 0 0 0 511.855399 831.982885zM511.855399 895.999339a433.647064 433.647064 0 0 1-297.521261-117.594725c-182.139695-170.776609-171.172996-464.862518 5.252124-641.353701l95.165844-95.198876 150.593918-150.626951a65.403808 65.403808 0 0 1 46.377246-19.224756 65.403808 65.403808 0 0 1 46.410277 19.191724l216.49321 216.261984 29.497778 29.497778c176.392087 176.458152 187.358786 470.67619 5.351221 641.419766A434.142548 434.142548 0 0 1 511.855399 895.999339z"  horiz-adv-x="1024" />

    
    <glyph glyph-name="dingwei" unicode="&#59545;" d="M512-128C229.239467-128 0 101.239467 0 384 0 666.760533 229.239467 896 512 896c282.760533 0 512-229.239467 512-512 0-282.760533-229.239467-512-512-512z m28.433067 965.700267v-140.8h-56.866134V837.700267C254.976 823.5008 72.465067 640.989867 58.2656 412.433067h140.834133v-56.866134H58.299733c14.165333-228.5568 196.676267-411.067733 425.2672-425.2672v140.8h56.866134v-140.8c228.590933 14.199467 411.136 196.7104 425.301333 425.2672h-140.834133v56.866134h140.8C951.569067 641.024 769.024 823.5008 540.4672 837.700267zM512 270.2336a113.7664 113.7664 0 1 0 0 227.5328 113.7664 113.7664 0 0 0 0-227.5328z"  horiz-adv-x="1024" />

    
    <glyph glyph-name="daifukuan" unicode="&#59546;" d="M871.480889 634.842074L757.001481 829.079704C733.620148 868.712296 691.2 890.936889 647.604148 890.936889a127.469037 127.469037 0 0 1-63.013926-16.630519L360.353185 747.482074c8.154074-11.510519 16.497778-23.36237 24.538074-34.759111l220.634074 124.73837a86.167704 86.167704 0 0 0 42.078815 11.036445c30.094222 0 58.007704-15.68237 72.874667-41.035852l100.560592-170.761482H169.377185C75.889778 636.700444 0 560.924444 0 467.342222v-423.367111c0-93.468444 75.794963-169.377185 169.377185-169.377185h677.357037c93.449481 0 169.358222 75.794963 169.358222 169.377185V467.437037c0 85.086815-62.881185 155.306667-144.611555 167.386074z m102.191407-590.639407a127.108741 127.108741 0 0 0-126.938074-126.938074H169.377185a127.108741 127.108741 0 0 0-126.957037 126.938074V361.66163h931.365926v-317.44h-0.113778z m0 359.784296H42.420148V467.437037a127.108741 127.108741 0 0 0 126.957037 126.938074h677.357037a127.108741 127.108741 0 0 0 126.938074-126.938074v-63.469037zM428.809481 653.539556h93.828741a31.288889 31.288889 0 0 1 0 62.577777h-93.828741a31.288889 31.288889 0 0 1 0-62.577777z"  horiz-adv-x="1024" />

    
    <glyph glyph-name="daifahuo" unicode="&#59547;" d="M420.723451 504.771765H24.696471a23.612235 23.612235 0 0 0-23.572079 23.652392c0 13.071059 10.541176 23.652392 23.572079 23.652392h396.006902c13.030902 0 23.572078-10.581333 23.572078-23.652392 0-13.05098-10.541176-23.652392-23.572078-23.652392zM1099.675608 504.771765H703.648627a23.612235 23.612235 0 0 0-23.592156 23.652392c0 13.071059 10.561255 23.652392 23.592156 23.652392h396.026981c13.030902 0 23.572078-10.581333 23.572078-23.652392 0-13.05098-10.541176-23.652392-23.572078-23.652392zM420.743529 225.28c-8.091608 0-16.00251 4.196392-20.379607 11.725804a23.732706 23.732706 0 0 0 8.453019 32.346353l141.472628 82.863686a23.612235 23.612235 0 0 0 23.792941-40.839529l-141.472628-82.863687c-3.754667-2.168471-7.830588-3.232627-11.846274-3.232627zM703.608471 225.28c-4.035765 0-8.111686 1.064157-11.846275 3.212549l-141.472627 82.883765a23.632314 23.632314 0 1 0 23.792941 40.839529l141.452549-82.863686c11.243922-6.605804 15.018667-21.062275 8.473098-32.346353a23.592157 23.592157 0 0 0-20.399686-11.725804zM420.723451 225.28a23.612235 23.612235 0 0 0-23.592157 23.652392V872.046431c0 13.05098 10.561255 23.652392 23.592157 23.652393s23.572078-10.601412 23.572078-23.652393v-623.114039c0-13.05098-10.541176-23.652392-23.572078-23.652392zM703.648627 225.28a23.612235 23.612235 0 0 0-23.592156 23.652392V872.046431c0 13.05098 10.561255 23.652392 23.592156 23.652393s23.572078-10.601412 23.572079-23.652393v-623.114039c0-13.05098-10.541176-23.652392-23.572079-23.652392zM941.035922-110.692392H183.275922c-100.392157 0-182.131451 81.076706-182.131451 180.705882V715.033098c0 99.58902 81.719216 180.645647 182.151529 180.645647h757.739922c100.452392 0 182.211765-81.056627 182.211764-180.645647v-644.979451c0-99.649255-81.759373-180.725961-182.211764-180.725961zM183.275922 848.353882c-74.410667 0-134.967216-59.833725-134.967216-133.340862v-644.979451c0-73.567373 60.556549-133.421176 134.987294-133.421177h757.739922c74.470902 0 135.047529 59.833725 135.047529 133.421177V715.01302c0 73.527216-60.576627 133.320784-135.047529 133.320784H183.275922z"  horiz-adv-x="1124" />

    
    <glyph glyph-name="daishouhuo" unicode="&#59548;" d="M100.124444 895.943111h542.151112a98.986667 98.986667 0 0 0 69.973333-29.202963 100.845037 100.845037 0 0 0 29.696-71.49037V19.911111c0-12.667259-9.784889-22.945185-21.82637-22.945185H384.70163c-12.060444 0-21.845333 10.277926-21.845334 22.945185l0.018963 0.891259a85.143704 85.143704 0 0 1-26.036148 56.983704 87.495111 87.495111 0 0 1-61.060741 24.557037 87.495111 87.495111 0 0 1-61.041777-24.557037 85.143704 85.143704 0 0 1-26.093037-58.595555c-0.360296-12.363852-10.05037-22.148741-21.750519-22.148741l-66.768593-0.075852c-27.117037 0-51.939556 11.188148-69.973333 29.202963A100.826074 100.826074 0 0 0 0.417185 97.659259V795.249778c0 27.894519 11.377778 53.210074 29.696 71.49037a98.986667 98.986667 0 0 0 69.973334 29.202963z m542.151112-45.909333H100.124444c-15.644444 0-29.809778-6.314667-39.973925-16.459852a54.139259 54.139259 0 0 1-16.042667-38.305185V97.659259c0-14.848 6.162963-28.406519 16.061629-38.305185 10.183111-10.145185 24.348444-16.478815 39.954963-16.478815h47.578075a131.716741 131.716741 0 0 0 37.527703 68.626963 129.953185 129.953185 0 0 0 181.134222 0 131.716741 131.716741 0 0 0 37.546667-68.626963h294.362074V795.249778c0 14.829037-6.162963 28.406519-16.061629 38.305185a56.395852 56.395852 0 0 1-39.936 16.478815zM720.118519 625.34163h224.749037c9.595259 0 17.749333-6.523259 20.669629-15.54963l113.208889-285.999407c1.137778-2.863407 1.687704-5.859556 1.687704-8.779852l0.037926-293.660445c0-12.667259-9.784889-22.945185-21.845334-22.945185H998.21037c-12.041481 0-21.82637 10.277926-21.82637 22.945185v0.417185a85.086815 85.086815 0 0 1-26.396444 56.414815 87.495111 87.495111 0 0 1-60.624593 24.158815c-23.589926 0-44.942222-9.197037-60.60563-24.158815a85.067852 85.067852 0 0 1-26.472296-57.818074c-0.512-12.288-10.164148-21.902222-21.750518-21.902222l-60.416-0.056889c-12.041481 0-21.82637 10.277926-21.826371 22.945185v581.025185c0 12.667259 9.784889 22.945185 21.826371 22.945186z m210.24237-45.928297h-188.397037v-535.115852h19.607704a131.621926 131.621926 0 0 0 37.831111 67.792593 129.953185 129.953185 0 0 0 179.939555 0 131.602963 131.602963 0 0 0 37.831111-67.792593h19.626667v266.24l-106.439111 268.894815zM732.596148 288.919704c-12.060444 0-21.845333 10.277926-21.845333 22.945185 0 12.667259 9.784889 22.945185 21.845333 22.945185h313.552593c12.060444 0 21.845333-10.277926 21.845333-22.945185 0-12.667259-9.784889-22.945185-21.845333-22.945185H732.596148zM275.797333 148.252444c35.84 0 68.41837-14.601481 92.065186-38.229333a131.735704 131.735704 0 0 0 38.72237-93.525333 131.735704 131.735704 0 0 0-38.72237-93.525334 129.953185 129.953185 0 0 0-184.130371 0 131.735704 131.735704 0 0 0-38.72237 93.525334c0 36.54163 14.791111 69.632 38.72237 93.525333a129.934222 129.934222 0 0 0 92.065185 38.229333z m62.027852-71.414518a87.419259 87.419259 0 0 1-62.027852 25.505185 87.419259 87.419259 0 0 1-62.027852-25.505185 85.029926 85.029926 0 0 1 0-120.680296 87.438222 87.438222 0 0 1 62.008889-25.505186c24.348444 0 46.26963 9.746963 62.046815 25.505186a85.086815 85.086815 0 0 1 0 120.680296zM889.362963 148.252444c35.84 0 68.399407-14.601481 92.065185-38.229333a131.735704 131.735704 0 0 0 38.741333-93.525333 131.735704 131.735704 0 0 0-38.741333-93.525334 129.991111 129.991111 0 0 0-184.111407 0 131.697778 131.697778 0 0 0-38.722371 93.525334c0 36.54163 14.791111 69.632 38.722371 93.525333a129.896296 129.896296 0 0 0 92.046222 38.229333z m62.046815-71.414518a87.457185 87.457185 0 0 1-62.046815 25.505185 87.419259 87.419259 0 0 1-62.008889-25.505185 85.048889 85.048889 0 0 1 0-120.680296 87.400296 87.400296 0 0 1 62.008889-25.505186c24.329481 0 46.26963 9.746963 62.046815 25.505186a85.067852 85.067852 0 0 1 0 120.680296z"  horiz-adv-x="1080" />

    
    <glyph glyph-name="yishouhuo" unicode="&#59549;" d="M261.277538 526.217846h494.572308v-47.911384H261.238154zM261.277538 356.155077h109.745231v-47.911385h-109.745231zM261.277538 186.801231h219.490462v-49.191385h-219.766154zM988.061538 537.284923l35.643077-30.759385L636.731077 130.56l-35.465846 34.402462zM470.449231 361.472L671.842462 165.415385l-37.316924-35.544616-201.432615 196.056616zM969.235692-27.175385c0-23.177846-28.120615-49.368615-52.65723-49.368615H102.872615c-23.827692 0-52.913231 26.998154-52.91323 50.215385V709.415385c0 23.177846 25.993846 50.116923 50.550153 50.116923l169.432616-1.339077 1.378461-82.254769 476.061539 0.590769V760.201846l167.522461 0.019692c44.544-1.083077 56.004923-14.651077 54.508308-49.191384v-99.780923h49.230769V725.799385c0 46.395077-38.990769 85.031385-87.355077 85.031384l-183.906461-1.457231V883.219692L271.320615 882.747077l-1.378461-72.881231-181.956923 0.275692C40.349538 810.141538 0.669538 772.174769 0.669538 725.110154v-764.553846c0-46.395077 38.990769-85.031385 87.355077-85.031385h843.303385c47.655385 0 87.355077 37.947077 87.355077 85.031385V347.037538l-49.427692-0.098461V-27.175385zM321.929846 837.513846h375.433846v-113.132308H321.929846V837.513846z"  horiz-adv-x="1024" />

    
    <glyph glyph-name="shouhou" unicode="&#59550;" d="M470.073962 267.206038h-125.642868c-1.854792 4.946113-2.473057 11.708377-2.473056 20.963019 0 3.690264 0 7.399849 0.618264 11.090113 0.618264 3.690264 1.236528 7.399849 1.854792 10.471849h125.642868v54.233358h-125.642868c-1.854792 4.926792-2.473057 11.708377-2.473056 20.943698 0 3.709585 0 7.399849 0.618264 11.109434 0.618264 3.670943 1.236528 7.380528 1.854792 10.471849h100.892981l-113.277584 199.042416c5.564377 0.618264-0.618264 1.236528 4.946113 1.854792 6.182642 0.618264 12.384604 0.618264 17.968302 0.618264 5.564377 0 11.747019 0 17.92966-0.618264 6.182642-0.618264 11.78566-1.236528 16.712453-1.854792l100.892981-185.479246 99.038189 185.479246c5.583698 0.618264 10.529811 1.236528 16.094188 1.854792 5.564377 0.618264 11.148075 0.618264 16.712453 0.618264 5.564377 0 11.76634 0 17.330717-0.618264 5.564377-0.618264-1.236528-1.236528 3.709585-1.854792l-111.403472-199.042416h105.839095c1.236528-5.545057 1.854792-12.326642 1.854792-19.707169 0-9.273962-0.618264-16.654491-1.854792-22.817812h-124.425661v-54.233358h124.425661c1.236528-5.545057 1.854792-12.326642 1.854792-19.70717 0-9.254642-0.618264-16.654491-1.854792-22.798491h-124.425661v-96.140075c-4.946113-0.618264-4.327849-1.236528-9.273962-1.854792-5.564377-0.618264-10.510491-0.618264-16.094189-0.618265-5.564377 0-10.510491 0-16.094188 0.618265-4.946113 0.618264 1.854792 1.236528-3.091321 1.854792l1.236528 96.120755zM924.401509 771.303849v-388.231245c0-13.56317 4.946113-24.653283 18.567246-24.653283s24.749887 11.090113 24.749887 24.653283V771.303849c0 52.99683-43.317132 96.120755-96.545812 96.120755H629.161057c-13.621132 0-24.769208-11.090113-24.769208-24.633962 0-13.56317 11.148075-18.489962 24.769208-18.489963H871.17283c25.986415 0 53.228679-27.12634 53.228679-52.99683z m-15.475924-529.968302h-66.849811v38.197132a19.513962 19.513962 0 0 1-19.803774 19.726491c-6.182642 0-13.002868-1.854792-17.968302-5.545057l-84.779472-56.687094c-7.438491-4.946113-11.76634-12.944906-11.766339-20.963019 0-7.998792 4.327849-16.036226 11.766339-20.943698l84.798793-56.706415c4.946113-3.091321 11.128755-5.545057 17.948981-5.545057a19.513962 19.513962 0 0 1 19.803774 19.726491V190.792453h73.032452c70.559396 0 96.565132-62.850415 96.565132-133.100679s-100.274717-120.774038-170.834113-120.774038h-142.973585c-13.621132 0-24.769208-11.090113-24.769207-24.653283 0-13.56317 11.148075-24.653283 24.769207-24.653283h142.973585c97.80166 0 220.971472 73.341585 220.971472 170.698868 0 97.376604-55.083472 183.025509-152.885132 183.025509zM615.539925 895.169208h-255.033963c-25.368151 0-46.408453-8.636377-46.408453-33.907925v6.781585H96.835623C43.606943 868.042868 0.289811 824.918943 0.289811 771.922113v-786.934339c0-52.99683 43.317132-96.140075 96.545812-96.140076h390.569056c13.621132 0 24.769208 4.926792 24.769208 18.489962 0 13.543849-11.148075 24.653283-24.769208 24.653283H96.835623c-25.986415 0-53.228679 27.107019-53.22868 52.996831V771.303849c0 25.889811 27.242264 52.99683 53.22868 52.99683h217.261886V776.211321c0-25.271547 21.059623-40.051925 46.427774-40.051925h255.014642c25.368151 0 40.225811 8.617057 40.225811 33.888604v91.193962c0 25.889811-14.85766 33.907925-40.225811 33.907925z m-3.728906-115.866566H357.433962V842.790642l6.182642 2.453735h248.194415V779.302642z"  horiz-adv-x="1062" />

    


  </font>
</defs>
</svg>
